<?xml version="1.0" encoding="utf-8"?>
<!-- Generator: Adobe Illustrator 16.0.2, SVG Export Plug-In . SVG Version: 6.00 Build 0)  -->
<!DOCTYPE svg PUBLIC "-//W3C//DTD SVG 1.1//EN" "http://www.w3.org/Graphics/SVG/1.1/DTD/svg11.dtd">
<svg version="1.1" xmlns="http://www.w3.org/2000/svg" xmlns:xlink="http://www.w3.org/1999/xlink" x="0px" y="0px"
	 width="1000.194px" height="1500px" viewBox="0 0 1000.194 1500" enable-background="new 0 0 1000.194 1500" xml:space="preserve">
<g id="Layer_2_copy_2">
	<g>
		<path fill="none" d="M575.857,1086.942c0.001,0.182,0.014,0.361,0.014,0.543c0-0.233,0.016-0.463,0.018-0.696L575.857,1086.942z"
			/>
		<path fill="#00B4E2" d="M829.556,935.608l-2.847-1.407l0.02-0.05l-114.615-56.666l-0.148,0.02l-68.886-34.037
			c-6.113-3.789-13.319-5.982-21.041-5.982c-9.578,0-18.366,3.37-25.253,8.983l-95.277,59.1l-0.668,0.089l-0.208,0.454
			l-359.998,223.301l-1.612,0.5c0,0,0.082,0.128,0.234,0.354l-0.234,0.146l0.276-0.085c2.993,4.416,30.744,42.834,81.781,29.401
			c49.893-13.132,54.361-63.457,54.755-71.231l0.038-0.012h0.025c0.538,40.959,33.889,74,74.975,74s74.437-33.041,74.975-74h0.025
			l0.025-0.021c0.526,40.969,33.882,74.021,74.975,74.021c41.421,0,75-33.578,75-75c0-0.182-0.013-0.361-0.014-0.543l0.031-0.153
			c-0.002,0.233-0.018,0.463-0.018,0.696c0,41.422,33.579,75,75,75s75-33.578,75-75s-33.579-75-75-75
			c-31.146,0-57.853,18.987-69.188,46.016l0.105-0.516l-23.22-18.41c-0.447-0.539-0.912-1.062-1.374-1.587v-63.442l65.021-56.414
			l0.924,0.08l174.163,90.749l0.049-0.124c5.08,2.336,10.729,3.648,16.687,3.648c22.092,0,40-17.908,40-40
			C854.038,955.896,843.94,941.668,829.556,935.608z"/>
	</g>
</g>
<g id="Layer_7">
	<polygon fill="#00B4E2" points="501.853,198.976 546.356,311.705 662.24,276.215 601.853,381.294 701.853,449.768 582.047,468.071 
		590.859,588.946 501.853,506.689 412.843,588.946 421.658,468.071 301.853,449.768 401.852,381.294 341.464,276.214 
		457.348,311.705 	"/>
	<path fill="#00B4E2" d="M682.194,720.485h-360c-16.568,0-30-13.432-30-30s13.432-30,30-30h360c16.568,0,30,13.432,30,30
		S698.763,720.485,682.194,720.485z"/>
	<g id="Layer_8_copy">
		<path fill="#00B4E2" d="M500.097,1500c-67.489,0-132.977-13.223-194.644-39.302c-59.552-25.185-113.033-61.232-158.955-107.143
			c-45.925-45.912-81.985-99.381-107.179-158.922C13.229,1132.972,0,1067.488,0,1000l0.049-500.002
			c0-67.486,13.226-132.969,39.311-194.629c25.189-59.542,61.243-113.011,107.161-158.923
			c45.917-45.91,99.392-81.958,158.939-107.143C367.123,13.223,432.608,0,500.097,0s132.977,13.223,194.644,39.302
			c59.553,25.185,113.033,61.232,158.955,107.142c45.926,45.912,81.985,99.382,107.179,158.923
			c26.091,61.661,39.319,127.145,39.319,194.633v500c0,67.488-13.229,132.972-39.319,194.634
			c-25.193,59.541-61.253,113.01-107.179,158.922c-45.922,45.91-99.402,81.958-158.955,107.143
			C633.074,1486.777,567.586,1500,500.097,1500z M500.097,50C251.94,50,50.049,251.869,50.049,500L50,1000.002
			C50,1248.131,251.913,1450,500.097,1450c248.184,0,450.097-201.869,450.097-450V500C950.194,251.869,748.281,50,500.097,50z"/>
	</g>
</g>
</svg>
